<?xml version="1.0" encoding="UTF-8"?>
<!DOCTYPE svg PUBLIC "-//W3C//DTD SVG 1.1//EN" "http://www.w3.org/Graphics/SVG/1.1/DTD/svg11.dtd">
<!-- Creator: CorelDRAW 2021 (64-Bit) -->
<svg xmlns="http://www.w3.org/2000/svg" xml:space="preserve" width="100px" height="100px" version="1.1" style="shape-rendering:geometricPrecision; text-rendering:geometricPrecision; image-rendering:optimizeQuality; fill-rule:evenodd; clip-rule:evenodd"
viewBox="0 0 100 100"
 xmlns:xlink="http://www.w3.org/1999/xlink"
 xmlns:xodm="http://www.corel.com/coreldraw/odm/2003">
 <defs>
  <style type="text/css">
   <![CDATA[
    .fil0 {fill:#AB2435}
    .fil1 {fill:white}
   ]]>
  </style>
 </defs>
 <g id="Layer_x0020_1">
  <metadata id="CorelCorpID_0Corel-Layer"/>
  <rect class="fil0" width="100" height="100" rx="50" ry="50"/>
  <path class="fil1" d="M22.59 61.91c0.13,0.05 1.16,0.87 1.37,1.03l2.7 2.08c0.44,0.36 0.96,0.71 1.42,1.03 1.82,1.29 3.79,2.55 6.17,3.48 2.66,1.04 5.09,1.45 8.25,1.3 1.5,-0.07 2.83,-0.28 4.16,-0.68 0.73,-0.22 1.87,-0.69 2.56,-1.06 1.18,-0.64 0.33,-0.53 2.33,0.37 1.78,0.8 3.84,1.34 5.87,1.37 3.28,0.06 5.21,-0.08 8.3,-1.28 2.07,-0.81 4.45,-2.21 6.18,-3.48 0.43,-0.32 1.72,-1.21 2.08,-1.53 0.2,-0.18 0.48,-0.37 0.69,-0.53l2.04 -1.58c0.12,-0.09 0.23,-0.17 0.34,-0.25 0.12,-0.1 0.22,-0.2 0.37,-0.27 -0.25,1.18 -1.95,3.8 -2.94,4.76 -2.29,2.32 -4.46,3.94 -7.47,5.35 -10.25,4.78 -23.71,4.77 -33.99,0.01 -3.04,-1.41 -6.79,-4 -8.63,-6.75 -0.79,-1.18 -1.3,-1.92 -1.8,-3.37zm62.23 -6.37c-1.27,0.23 -3.89,1.69 -5.03,2.46 -1.58,1.06 -2.76,1.87 -4.32,3.1 -0.95,0.74 -1.87,1.43 -2.8,2.16 -0.47,0.37 -0.98,0.72 -1.46,1.07 -0.49,0.36 -0.95,0.66 -1.46,1.02 -0.94,0.65 -2.11,1.28 -3.14,1.81 -1.99,1.02 -5.34,2.07 -8.01,1.89l0.48 -0.68c0.41,-0.51 1.14,-1.5 1.52,-1.93 0.19,-0.21 0.32,-0.45 0.52,-0.65 0.26,-0.25 0.56,-0.69 0.78,-0.95l1.89 -2.09c0.74,-0.69 1.44,-1.49 2.32,-2.31l2.37 -2.21c0.49,-0.45 1.37,-1.11 1.98,-1.5 2.7,-1.77 5.69,-2.63 8.97,-2.45 0.33,0.01 0.72,0.1 1.01,0.09 1.31,0.11 2.46,0.4 3.67,0.81 0.25,0.09 0.66,0.24 0.9,0.33l-0.19 0.03zm-69.75 -0.05c0.21,-0.16 1.62,-0.56 1.99,-0.66 4.46,-1.12 8.94,-0.59 12.71,2.05 0.26,0.19 0.53,0.37 0.78,0.56 0.24,0.18 0.53,0.4 0.72,0.58 0.15,0.13 0.2,0.17 0.36,0.32 0.1,0.1 0.23,0.22 0.35,0.32l3.72 3.54c0.12,0.12 0.21,0.23 0.32,0.35 0.12,0.13 0.2,0.23 0.32,0.36 0.11,0.12 0.21,0.19 0.31,0.32 0.21,0.24 0.44,0.45 0.65,0.69l4.1 5.13c-3.36,0.21 -7.06,-1.26 -9.7,-2.8 -0.57,-0.33 -2.11,-1.3 -2.65,-1.73l-5.3 -4.02c-0.66,-0.53 -1.5,-1.08 -2.16,-1.58l-1.51 -1.01c-2.03,-1.26 -2.79,-1.58 -5.01,-2.42zm39.16 6.23c-0.88,1.54 -1.69,2.5 -2.97,3.75 -0.1,0.1 -0.21,0.16 -0.32,0.26l-0.92 0.73c-0.36,-0.12 -1.56,-1.26 -1.85,-1.56 -0.83,-0.84 -1.35,-1.52 -1.99,-2.5 -0.16,-0.24 -0.27,-0.44 -0.41,-0.68 -1.05,-1.84 -2.03,-4.86 -1.95,-7.02 0.36,0.21 1.66,1.45 1.93,1.74 0.16,0.16 0.28,0.29 0.46,0.47 0.49,0.51 0.83,1.01 1.24,1.52 0.48,0.61 1.04,1.59 1.42,2.29 0.34,0.63 1.1,2.46 1.14,2.53 0.8,-2.17 1.69,-3.72 2.95,-5.37 0.15,-0.2 0.28,-0.32 0.43,-0.5 0.55,-0.67 1.17,-1.29 1.83,-1.86 0.17,-0.16 0.31,-0.3 0.48,-0.44 0.15,-0.12 0.34,-0.29 0.48,-0.38 0.1,2.11 -0.92,5.22 -1.95,7.02zm-8.58 -16.98c0.15,0.1 0.3,0.3 0.44,0.44 1,0.97 2.49,2.03 4.02,1.93 1.66,-0.12 2.89,-1.35 3.89,-2.47 0.17,-0.19 0.08,-0.15 0.25,-0.23l0.7 2.16c0.22,0.75 0.41,1.47 0.58,2.24 0.07,0.32 0.63,3.38 0.56,3.64 -0.03,0.11 -0.62,0.51 -0.76,0.62l-1.18 0.96c-0.13,0.11 -0.23,0.21 -0.35,0.32 -0.52,0.44 -0.97,0.88 -1.4,1.41 -0.12,0.15 -0.21,0.23 -0.35,0.37 -0.37,0.41 -1.2,1.55 -1.51,2.02 -0.18,0.29 -0.37,0.56 -0.53,0.86 -0.12,-0.14 -0.21,-0.32 -0.3,-0.48 -0.66,-1.03 -1.23,-1.8 -2.05,-2.7 -0.92,-1.01 -0.88,-0.95 -1.96,-1.94 -0.13,-0.12 -0.29,-0.23 -0.45,-0.36 -0.33,-0.27 -1.01,-0.85 -1.35,-1 0.08,-1.33 0.38,-2.89 0.67,-4.13 0.37,-1.55 0.65,-2.25 1.08,-3.66zm12.34 8.63c0.16,-0.07 0.43,-0.26 0.6,-0.36 2,-1.29 4.7,-2.61 6.82,-3.81 0.41,-0.24 0.81,-0.49 1.22,-0.71 0.31,-0.17 1.02,-0.66 1.21,-0.73 0.12,3.29 0.1,5.41 -0.85,8.82 -0.04,0.15 -0.16,0.65 -0.22,0.74l-1 0.93c-0.82,0.69 -2.1,2.1 -2.88,2.84 -0.89,0.87 -1.91,2.08 -2.75,3.04 -0.14,0.16 -0.26,0.34 -0.41,0.52 -0.59,0.68 -1.14,1.42 -1.7,2.13 -0.18,0.24 -1.58,2.14 -1.66,2.16 -0.82,-0.06 -1.83,-0.3 -2.54,-0.54 -0.39,-0.13 -0.74,-0.26 -1.11,-0.41 -0.31,-0.13 -0.79,-0.4 -1.04,-0.47 0.09,-0.18 1.12,-1.04 1.35,-1.25 0.59,-0.59 1.29,-1.37 1.77,-2.09 0.62,-0.91 0.88,-1.26 1.43,-2.36 1.29,-2.6 1.81,-5.12 1.76,-8.45zm-9.67 14.15c-0.48,0.11 -1.25,0.48 -1.79,0.66 -0.59,0.2 -1.22,0.41 -1.86,0.57 -1.11,0.27 -1.02,0.24 -1.2,0.01 -0.82,-1.09 -1.67,-2.17 -2.5,-3.25l-2.79 -3.31 -4.24 -4.24c-0.75,-0.71 -0.64,-0.29 -0.96,-1.48 -0.73,-2.72 -1.05,-5.74 -0.81,-8.72l1.2 0.73c1.88,1.11 4.27,2.36 6.22,3.44l2.43 1.44c-0.06,3.34 0.46,5.84 1.75,8.45 0.87,1.76 1.91,3.17 3.25,4.44 0.22,0.22 0.43,0.39 0.66,0.61 0.16,0.15 0.58,0.49 0.64,0.65zm-26.04 -21.25c0.04,0.09 1.51,1.29 1.75,1.48l1.9 1.37c1.01,0.71 2.98,1.82 4.4,2.16 0.04,0.72 0.11,1.43 0.2,2.15 0.09,0.67 0.25,1.34 0.33,1.98l-0.7 -0.44c-1.56,-1.01 -3.68,-1.88 -5.54,-2.23 -0.25,-0.04 -0.31,-0.02 -0.42,-0.17l-0.6 -1.04c-0.25,-0.49 -0.48,-1 -0.67,-1.55 -0.23,-0.63 -0.85,-3.02 -0.65,-3.71zm47.41 4.65c1.8,-0.65 3.05,-1.4 4.55,-2.46 0.43,-0.3 1.43,-1.03 1.77,-1.35l0.81 -0.69c0.11,-0.09 0.32,-0.29 0.42,-0.34 0.03,2.48 -1.05,5.02 -2.14,6.59 -0.16,0.24 -0.29,0.2 -0.78,0.32 -0.28,0.08 -0.55,0.16 -0.83,0.26 -0.54,0.17 -1.08,0.37 -1.57,0.61 -0.5,0.23 -2.48,1.24 -2.76,1.56 -0.02,-0.18 0.29,-1.8 0.34,-2.17 0.09,-0.79 0.14,-1.54 0.19,-2.33zm-19.66 -16.2c0.07,0.25 0.27,0.62 0.39,0.88 1.21,2.63 2.29,4.93 3.38,7.66 0.21,0.51 0.09,0.44 -0.18,0.79 -0.16,0.22 -0.4,0.44 -0.58,0.64 -2.32,2.47 -4.15,2.18 -6.42,0.04l-0.62 -0.64c-0.14,-0.2 0.13,-0.67 0.22,-0.89 0.71,-1.84 1.44,-3.36 2.22,-5.13l1.59 -3.35zm-22.48 14.18c-0.32,-5.53 1.09,-9.92 3.89,-14.18 0.2,-0.32 0.42,-0.58 0.63,-0.88 0.53,-0.74 0.87,-1.04 1.38,-1.64 0.73,-0.86 2.21,-2.22 3.16,-2.89 0.31,-0.21 0.57,-0.42 0.88,-0.64 6.87,-4.75 16.26,-5.04 23.54,-0.91 0.33,0.18 0.63,0.37 0.94,0.57 0.16,0.1 0.29,0.19 0.46,0.3l0.45 0.31c1.41,0.92 2.85,2.34 3.98,3.58 0.54,0.6 0.88,1.12 1.34,1.68 0.23,0.28 0.41,0.58 0.62,0.9 2.55,3.93 3.77,8.16 3.68,12.95 -0.01,0.4 0.01,0.32 -0.28,0.49 -0.15,0.09 -0.31,0.18 -0.48,0.27 -0.49,0.28 -1.47,0.83 -2.02,0.97 -0.02,-1.86 -0.22,-3.43 -0.46,-5.21 -0.38,0.22 -0.97,0.67 -1.36,0.95 -1.86,1.33 -5.15,3.11 -7.23,4.19l-2.87 1.65c-0.12,-0.44 -0.16,-1.11 -0.24,-1.6 -1.3,-7.29 -4.81,-12.8 -7.54,-19.56 -0.12,0.15 -0.45,1.02 -0.57,1.28l-1.68 3.74c-0.36,0.81 -0.76,1.67 -1.14,2.46 -0.4,0.81 -0.75,1.66 -1.12,2.5 -1.16,2.63 -2.11,5.27 -2.77,8.11 -0.11,0.5 -0.21,0.99 -0.3,1.51 -0.08,0.44 -0.13,1.17 -0.24,1.56l-5.87 -3.27c-1.11,-0.59 -3.24,-1.84 -4.25,-2.59l-1.34 -0.93c-0.26,1.95 -0.46,3.55 -0.45,5.59 -0.75,-0.15 -2.16,-0.92 -2.74,-1.26zm-1.77 -1.17c-0.39,-0.19 -1.93,-1.49 -2.27,-1.77 -0.88,-0.74 -1.22,-1.11 -1.97,-1.83 -0.05,-0.05 -0.04,-0.1 -0.07,-0.04 -0.18,0.2 -0.27,1.93 -0.27,2.32 0.03,1.52 0.36,2.95 0.89,4.33 0.25,0.65 0.57,1.18 0.82,1.75 -2.91,-0.09 -4.83,0.03 -7.63,0.98 -1.11,0.38 -2.1,0.79 -3.1,1.27 -0.99,0.49 -1.95,1.05 -2.92,1.5 0.16,0.1 1.37,0.22 1.65,0.26 1.95,0.25 2.74,0.35 4.66,1.09 0.87,0.34 1.82,0.81 2.57,1.26 1.16,0.69 1.63,1.06 2.61,1.67 0.27,0.18 0.22,0.45 0.39,1.04 0.15,0.51 0.31,0.96 0.5,1.43 0.67,1.59 1.51,2.84 2.57,4.11 0.74,0.89 1.57,1.64 2.44,2.39 0.65,0.56 1.42,1.12 2.2,1.63 2.42,1.6 4.94,2.75 7.81,3.7 4.06,1.34 8.69,2.03 13.32,2.03 4.46,0.01 9.45,-0.68 13.33,-2.02 3.87,-1.34 4.75,-1.82 7.8,-3.67 0.42,-0.25 0.75,-0.53 1.14,-0.8 1.05,-0.74 2.17,-1.77 3.04,-2.71 0.63,-0.69 1.17,-1.3 1.7,-2.13 0.95,-1.48 1.66,-2.89 2.05,-4.66 0.1,-0.42 1.18,-0.98 1.6,-1.26 0.41,-0.27 0.78,-0.49 1.2,-0.73 0.76,-0.45 1.68,-0.92 2.56,-1.27 2.91,-1.13 3.66,-0.86 6.13,-1.3l0.21 -0.06c-1,-0.46 -1.98,-1.05 -3,-1.54 -2.23,-1.06 -4.47,-1.83 -6.99,-2.13 -1.58,-0.2 -2.75,-0.13 -4.32,-0.01 0.07,-0.22 0.35,-0.64 0.47,-0.9 0.16,-0.3 0.29,-0.6 0.43,-0.92 0.55,-1.34 0.92,-2.92 0.96,-4.41 0.02,-0.97 -0.1,-1.58 -0.25,-2.48 -0.16,0.09 -0.72,0.68 -0.91,0.86 -0.52,0.52 -0.87,0.8 -1.41,1.27 -0.25,0.22 -1.26,1.06 -1.48,1.17 -0.15,-2.27 -0.12,-3.07 -0.67,-5.38 -0.67,-2.8 -2.08,-6.01 -3.79,-8.31 -0.21,-0.29 -0.41,-0.57 -0.64,-0.88 -0.32,-0.43 -0.81,-0.96 -1.02,-1.24 -0.66,-0.85 -1.91,-1.93 -2.71,-2.63 -1.48,-1.31 -3.71,-2.66 -5.6,-3.51 -3.08,-1.37 -6.25,-2.07 -10.08,-2.05 -3.47,0.01 -7.2,0.87 -9.88,2.21 -1.68,0.84 -3.25,1.71 -4.68,2.88 -0.28,0.23 -0.56,0.46 -0.84,0.68l-1.58 1.48c-0.41,0.42 -1.73,1.94 -2.09,2.45 -1.08,1.51 -2.04,2.94 -2.82,4.79 -1.32,3.15 -2.11,6.18 -2.06,10.09z"/>
 </g>
</svg>
